<svg width="191" height="34" viewBox="0 0 191 34" fill="none" xmlns="http://www.w3.org/2000/svg">
<path fill-rule="evenodd" clip-rule="evenodd" d="M147.752 8.2247C145.522 8.2247 143.731 6.43355 143.731 4.13063C143.731 1.86427 145.559 0 147.825 0C150.092 0 151.956 1.79116 151.956 4.05752C151.956 6.36044 150.092 8.2247 147.752 8.2247ZM71.3173 32.2774H64.6644V4.27685H71.427V11.9532C71.427 11.9532 74.4244 9.39444 78.3357 9.39444C84.952 9.39444 88.8633 14.9872 88.8633 21.0918C88.8633 27.3426 84.8789 32.8257 78.5551 32.8257C75.5942 32.8257 73.4009 31.985 71.3173 29.9379V32.2774ZM50.1524 32.8257C43.2437 32.8257 38.4916 28.622 38.4916 21.0918C38.4916 14.2927 43.3533 9.39444 49.9696 9.39444C56.4397 9.39444 61.009 13.6713 61.009 21.6767L61.0105 21.8712C61.0122 21.9847 61.0152 22.0878 61.018 22.1862C61.0258 22.4608 61.0326 22.6995 61.009 23.0292H45.2176C45.8025 25.6976 47.9226 26.977 50.4814 26.977C52.5838 26.977 54.0038 25.5797 55.1396 24.1332L55.3431 23.8699C55.3431 23.8699 58.6579 25.7811 60.213 26.7155L60.6435 26.977C58.6695 30.4862 54.8679 32.8257 50.1524 32.8257ZM8.55369 32.2774L0 9.83309H7.16463L11.6242 22.2615L15.7183 9.83309H21.1649L25.4783 22.3346L29.9014 9.83309H36.9563L28.5123 32.2774H22.6271L18.4599 20.2145L14.4389 32.2774H8.55369ZM49.8965 15.0969C52.0167 15.0969 53.1864 16.1204 53.9906 18.2771H45.4735C46.3142 16.1935 47.5936 15.0969 49.8965 15.0969ZM76.8004 15.6818C79.871 15.6818 82.1008 18.0943 82.1008 20.9456C82.1008 24.1258 80.4193 26.7943 77.0929 26.7943C73.5471 26.7943 71.2442 24.5644 71.2442 21.0918C71.2442 17.8385 73.6202 15.6818 76.8004 15.6818ZM103.558 33.045C96.686 33.045 91.4221 27.4157 91.4221 21.1649C91.4221 14.4389 96.7956 9.39444 103.704 9.39444C110.503 9.39444 115.804 14.2927 115.804 21.0552C115.804 27.8909 110.869 33.045 103.558 33.045ZM103.668 15.7914C106.848 15.7914 109.041 18.0578 109.041 20.9456C109.041 24.4548 106.994 26.6115 103.631 26.6115C100.524 26.6115 98.2212 24.272 98.2212 21.2746C98.2212 18.204 100.378 15.7914 103.668 15.7914ZM132.875 32.2774H126.807L117.412 9.83309H125.015L129.914 22.9561L134.52 9.83309H141.684L132.875 32.2774ZM151.188 9.83309H144.389V32.2774H151.188V9.83309ZM154.844 21.1649C154.844 27.4157 160.108 33.045 166.98 33.045C174.291 33.045 179.225 27.8909 179.225 21.0552C179.225 14.2927 173.925 9.39444 167.126 9.39444C160.217 9.39444 154.844 14.4389 154.844 21.1649ZM172.463 20.9456C172.463 18.0578 170.27 15.7914 167.089 15.7914C163.8 15.7914 161.643 18.204 161.643 21.2746C161.643 24.272 163.946 26.6115 167.053 26.6115C170.416 26.6115 172.463 24.4548 172.463 20.9456Z" fill="white"/>
<path d="M185.878 24.1816C188.181 24.1816 190.082 26.0825 190.082 28.3854C190.082 30.6883 188.181 32.5891 185.878 32.5891C183.575 32.5891 181.675 30.6883 181.675 28.3854C181.675 26.0825 183.575 24.1816 185.878 24.1816Z" fill="white"/>
</svg>
